<?xml version="1.0" encoding="UTF-8"?><!DOCTYPE svg PUBLIC "-//W3C//DTD SVG 1.1//EN" "http://www.w3.org/Graphics/SVG/1.1/DTD/svg11.dtd"><svg xmlns="http://www.w3.org/2000/svg"><symbol id="arrow" viewBox="0 0 5 10"><path d="M457.001-1279.998h-5 5zM457.001-1279.998h5-5z" clip-rule="evenodd" fill="none"/><path d="M.861 10.001L0 8.967 3.303 5 0 1.034.861 0l4.141 5-4.141 5.001z" fill-rule="evenodd" clip-rule="evenodd"/></symbol><symbol id="audio" viewBox="0 0 13 15.992"><path d="M335.998-2176.195h-5 5zM335.998-2176.195h5-5z" clip-rule="evenodd" fill="none"/><path d="M3 11.994c-1.657 0-3-1.342-3-2.998V6.997a2.999 2.999 0 0 1 3-2.999h1L9 0v15.992l-5-3.998H3zm10-3.998c0 1.861-1.278 3.411-3 3.857V9.719c.596-.347 1-.985 1-1.723 0-.738-.405-1.375-1-1.722V4.14c1.722.445 3 1.995 3 3.856z" fill-rule="evenodd" clip-rule="evenodd" fill="#999"/></symbol><symbol id="circle" viewBox="0 0 8 8"><path d="M125-1023.999h-5 5zM125-1023.999h5-5z" clip-rule="evenodd" fill="none"/><path d="M4 0a4 4 0 1 1 0 8 4 4 0 0 1 0-8z" fill-rule="evenodd" clip-rule="evenodd" fill="#5a5c5a"/></symbol><symbol id="comms" viewBox="0 0 15 14.994"><path d="M124.997-1919.994h-5 5zM124.997-1919.994h5-5z" clip-rule="evenodd" fill="none"/><path d="M12.188 12.182H6.563l-1.875 2.811-1.875-2.811A2.812 2.812 0 0 1 0 9.371v-6.56A2.812 2.812 0 0 1 2.813 0h9.375A2.812 2.812 0 0 1 15 2.811v6.56a2.812 2.812 0 0 1-2.812 2.811z" fill-rule="evenodd" clip-rule="evenodd" fill="#999"/></symbol><symbol id="heart" viewBox="0 0 15.985 13.893"><path d="M253.993-1920.295h-5 5zM253.993-1920.295h5-5z" clip-rule="evenodd" fill="none"/><path d="M14.814 6.826l-6.821 7.067-6.821-7.067a3.998 3.998 0 0 1 0-5.655 4.002 4.002 0 0 1 5.657 0l1.164 1.413 1.164-1.413a4 4 0 0 1 5.657 5.655z" fill-rule="evenodd" clip-rule="evenodd" fill="#999"/></symbol><symbol id="music" viewBox="0 0 303.995 346.479"><path d="M58.268 346.479C26.139 346.479 0 320.383 0 288.304s26.139-58.176 58.268-58.176c6.904 0 12.504 5.589 12.504 12.485 0 6.895-5.6 12.485-12.504 12.485-18.339 0-33.259 14.897-33.259 33.207 0 18.311 14.92 33.206 33.259 33.206 18.338 0 33.258-14.897 33.258-33.206l-.045-234.39a12.489 12.489 0 0 1 9.802-12.192L288.789.295c3.7-.818 7.581.086 10.537 2.459a12.48 12.48 0 0 1 4.67 9.745l-.254 227.053c0 32.064-26.138 58.161-58.266 58.161-32.13 0-58.268-26.097-58.268-58.175s26.138-58.176 58.268-58.176c6.906 0 12.504 5.59 12.504 12.485s-5.599 12.485-12.504 12.485c-18.339 0-33.259 14.897-33.259 33.207 0 18.31 14.92 33.206 33.259 33.206 18.338 0 33.257-14.897 33.257-33.206l.236-211.5L116.49 63.935l.043 224.366c.001 32.082-26.137 58.178-58.265 58.178z"/></symbol><symbol id="share" viewBox="0 0 16 13.994"><path d="M187.999-1920.091h-5 5zM187.999-1920.091h5-5zM14 8.494v2.501a1 1 0 0 1-1 1H3a1 1 0 0 1-1-1V5.997a.99.99 0 0 1 .54-.873 8.017 8.017 0 0 1 1.221-2.125H3a3 3 0 0 0-3 2.999v4.998a2.999 2.999 0 0 0 3 2.998h10a3 3 0 0 0 3-2.998v-4l-2 1.498z" clip-rule="evenodd" fill="none"/><path d="M15.6 4.797l-4 2.998a1.003 1.003 0 0 1-1.047.095.997.997 0 0 1-.553-.893v-1a5.997 5.997 0 0 0-5.651 3.998A5.959 5.959 0 0 1 4 7.997a6 6 0 0 1 6-5.998V1a1.002 1.002 0 0 1 1-1c.212 0 .424.068.6.2l4 2.998a.998.998 0 0 1 0 1.599z" fill-rule="evenodd" clip-rule="evenodd" fill="#999"/></symbol></svg>