<?xml version="1.0" encoding="iso-8859-1"?>
<!-- Generator: Adobe Illustrator 21.1.0, SVG Export Plug-In . SVG Version: 6.00 Build 0)  -->
<svg version="1.1" id="&#x421;&#x43B;&#x43E;&#x439;_1"
	 xmlns="http://www.w3.org/2000/svg" xmlns:xlink="http://www.w3.org/1999/xlink" x="0px" y="0px" viewBox="0 0 303.995 346.479"
	 style="enable-background:new 0 0 303.995 346.479;" xml:space="preserve">
<path d="M58.268,346.479C26.139,346.479,0,320.383,0,288.304s26.139-58.176,58.268-58.176c6.904,0,12.504,5.589,12.504,12.485
	c0,6.895-5.6,12.485-12.504,12.485c-18.339,0-33.259,14.897-33.259,33.207c0,18.311,14.92,33.206,33.259,33.206
	c18.338,0,33.258-14.897,33.258-33.206L91.481,53.915c-0.001-5.857,4.075-10.926,9.802-12.192L288.789,0.295
	c3.7-0.818,7.581,0.086,10.537,2.459c2.956,2.372,4.674,5.958,4.67,9.745l-0.254,227.053c0,32.064-26.138,58.161-58.266,58.161
	c-32.13,0-58.268-26.097-58.268-58.175s26.138-58.176,58.268-58.176c6.906,0,12.504,5.59,12.504,12.485
	c0,6.895-5.599,12.485-12.504,12.485c-18.339,0-33.259,14.897-33.259,33.207c0,18.31,14.92,33.206,33.259,33.206
	c18.338,0,33.257-14.897,33.257-33.206l0.236-211.5L116.49,63.935l0.043,224.366C116.534,320.383,90.396,346.479,58.268,346.479z"/>
</svg>
