<?xml version="1.0" encoding="iso-8859-1"?>
<!-- Generator: Adobe Illustrator 21.1.0, SVG Export Plug-In . SVG Version: 6.00 Build 0)  -->
<svg version="1.1" id="&#x421;&#x43B;&#x43E;&#x439;_1"
	 xmlns="http://www.w3.org/2000/svg" xmlns:xlink="http://www.w3.org/1999/xlink" x="0px" y="0px" viewBox="0 0 16 13.994"
	 style="enable-background:new 0 0 16 13.994;" xml:space="preserve">
<path style="fill-rule:evenodd;clip-rule:evenodd;fill:none;" d="M187.999-1920.091L187.999-1920.091"/>
<path style="fill-rule:evenodd;clip-rule:evenodd;fill:none;" d="M187.999-1920.091h-5H187.999z"/>
<path style="fill-rule:evenodd;clip-rule:evenodd;fill:none;" d="M187.999-1920.091h5H187.999z"/>
<path style="fill-rule:evenodd;clip-rule:evenodd;fill:none;" d="M14,8.494v2.501c0,0.552-0.448,1-1,1H3c-0.552,0-1-0.448-1-1V5.997
	c0-0.383,0.223-0.705,0.54-0.873c0.299-0.773,0.711-1.489,1.221-2.125H3c-1.657,0-3,1.343-3,2.999v4.998
	c0,1.656,1.343,2.998,3,2.998h10c1.657,0,3-1.343,3-2.998V6.996L14,8.494z"/>
<path style="fill-rule:evenodd;clip-rule:evenodd;fill:#999999;" d="M15.6,4.797l-4,2.998c-0.176,0.132-0.388,0.201-0.6,0.201
	c-0.152,0-0.305-0.036-0.447-0.106C10.214,7.721,10,7.376,10,6.997v-1c-2.611,0-4.827,1.671-5.651,3.998C4.127,9.37,4,8.698,4,7.997
	c0-3.312,2.687-5.998,6-5.998V1c0-0.378,0.214-0.725,0.553-0.895C10.694,0.035,10.848,0,11,0c0.212,0,0.424,0.068,0.6,0.2l4,2.998
	c0.252,0.189,0.4,0.484,0.4,0.8S15.852,4.609,15.6,4.797z"/>
</svg>
