<?xml version="1.0" encoding="iso-8859-1"?>
<!-- Generator: Adobe Illustrator 21.1.0, SVG Export Plug-In . SVG Version: 6.00 Build 0)  -->
<svg version="1.1" id="&#x421;&#x43B;&#x43E;&#x439;_1"
	 xmlns="http://www.w3.org/2000/svg" xmlns:xlink="http://www.w3.org/1999/xlink" x="0px" y="0px" viewBox="0 0 13 15.992"
	 style="enable-background:new 0 0 13 15.992;" xml:space="preserve">
<path style="fill-rule:evenodd;clip-rule:evenodd;fill:none;" d="M335.998-2176.195L335.998-2176.195"/>
<path style="fill-rule:evenodd;clip-rule:evenodd;fill:none;" d="M335.998-2176.195h-5H335.998z"/>
<path style="fill-rule:evenodd;clip-rule:evenodd;fill:none;" d="M335.998-2176.195h5H335.998z"/>
<path style="fill-rule:evenodd;clip-rule:evenodd;fill:#999999;" d="M3,11.994c-1.657,0-3-1.342-3-2.998V6.997
	C0,5.34,1.343,3.998,3,3.998h1L9,0v15.992l-5-3.998H3z M13,7.996c0,1.861-1.278,3.411-3,3.857V9.719c0.596-0.347,1-0.985,1-1.723
	c0-0.738-0.405-1.375-1-1.722V4.14C11.722,4.585,13,6.135,13,7.996z"/>
</svg>
